<?xml version="1.0" standalone="no"?>
<!DOCTYPE svg PUBLIC "-//W3C//DTD SVG 20010904//EN"
 "http://www.w3.org/TR/2001/REC-SVG-20010904/DTD/svg10.dtd">
<svg version="1.0" xmlns="http://www.w3.org/2000/svg"
 width="700.000000pt" height="700.000000pt" viewBox="0 0 700.000000 700.000000"
 preserveAspectRatio="xMidYMid meet">
<metadata>
Created by potrace 1.11, written by Peter Selinger 2001-2013
</metadata>
<g transform="translate(0.000000,700.000000) scale(0.100000,-0.100000)"
fill="#000000" stroke="none">
<path d="M3285 6639 c-460 -28 -1047 -111 -1508 -215 -108 -24 -200 -44 -202
-44 -3 0 -5 -73 -5 -161 l0 -161 30 5 c98 20 436 70 620 92 753 91 1503 92
2025 4 722 -122 1176 -371 1467 -804 177 -264 274 -557 340 -1025 8 -62 12
-535 15 -1723 l4 -1637 -860 0 -861 0 -2 381 -3 380 -70 -87 c-321 -405 -693
-646 -1145 -742 -207 -45 -324 -56 -590 -56 -266 0 -375 10 -570 55 -223 51
-478 164 -650 286 -118 85 -276 240 -363 357 -118 158 -221 389 -261 586 -75
375 -29 857 110 1133 14 26 20 47 15 47 -6 0 -54 -44 -109 -98 -272 -271 -414
-618 -442 -1083 -41 -694 215 -1252 735 -1600 243 -163 541 -265 874 -300 167
-17 542 -7 701 20 282 48 497 124 703 248 35 21 99 46 166 63 161 42 392 138
475 196 11 8 24 14 28 14 5 0 8 -92 8 -205 l0 -205 860 0 860 0 0 125 0 125
325 0 325 0 0 250 0 250 100 0 100 0 0 1603 c0 1007 -4 1663 -11 1767 -44 693
-228 1180 -578 1531 -374 373 -926 572 -1741 629 -169 11 -712 11 -915 -1z"/>
<path d="M1000 5685 c-58 -13 -141 -32 -185 -42 l-80 -19 -3 -663 c-1 -364 1
-661 5 -659 5 2 49 24 98 49 127 65 450 199 480 199 3 0 5 -43 5 -95 0 -52 2
-95 4 -95 1 0 50 22 107 49 289 136 608 235 954 296 212 37 285 43 465 34 279
-14 500 -56 668 -127 l87 -37 -65 -2 c-861 -30 -1473 -193 -1865 -498 -132
-103 -133 -109 -3 -60 272 104 613 174 1043 215 90 9 1004 27 1513 29 l122 1
0 88 c0 131 -25 264 -65 347 -145 301 -553 445 -1265 445 -678 0 -1314 -132
-1792 -371 l-98 -49 0 495 c0 390 -3 495 -12 494 -7 0 -60 -11 -118 -24z"/>
<path d="M3160 3269 c-517 -60 -780 -288 -780 -679 0 -282 147 -498 405 -596
210 -78 503 -90 735 -29 97 26 268 103 329 149 39 29 38 30 -82 16 -120 -14
-319 2 -433 36 -215 62 -348 167 -431 339 -33 71 -69 208 -58 226 4 5 28 21
55 34 l49 25 506 0 505 0 0 -130 c0 -162 -16 -310 -45 -423 -25 -97 -28 -96
55 -23 251 221 380 532 380 913 l0 153 -557 -1 c-307 -1 -592 -5 -633 -10z"/>
</g>
</svg>
